<?xml version="1.0" encoding="UTF-8" standalone="no"?>
<svg
   xmlns:dc="http://purl.org/dc/elements/1.1/"
   xmlns:cc="http://creativecommons.org/ns#"
   xmlns:rdf="http://www.w3.org/1999/02/22-rdf-syntax-ns#"
   xmlns:svg="http://www.w3.org/2000/svg"
   xmlns="http://www.w3.org/2000/svg"
   xmlns:sodipodi="http://sodipodi.sourceforge.net/DTD/sodipodi-0.dtd"
   xmlns:inkscape="http://www.inkscape.org/namespaces/inkscape"
   viewBox="0 0 24 24"
   version="1.1"
   id="svg6"
   sodipodi:docname="github-icon.svg"
   inkscape:version="0.92.5 (2060ec1f9f, 2020-04-08)"
   width="24"
   height="24">
  <metadata
     id="metadata12">
    <rdf:RDF>
      <cc:Work
         rdf:about="">
        <dc:format>image/svg+xml</dc:format>
        <dc:type
           rdf:resource="http://purl.org/dc/dcmitype/StillImage" />
        <dc:title></dc:title>
      </cc:Work>
    </rdf:RDF>
  </metadata>
  <defs
     id="defs10" />
  <sodipodi:namedview
     pagecolor="#ffffff"
     bordercolor="#666666"
     borderopacity="1"
     objecttolerance="10"
     gridtolerance="10"
     guidetolerance="10"
     inkscape:pageopacity="0"
     inkscape:pageshadow="2"
     inkscape:window-width="1366"
     inkscape:window-height="745"
     id="namedview8"
     showgrid="false"
     inkscape:zoom="10.429825"
     inkscape:cx="16.403542"
     inkscape:cy="8.0790518"
     inkscape:window-x="0"
     inkscape:window-y="1"
     inkscape:window-maximized="1"
     inkscape:current-layer="svg6" />
  <g
     id="g818"
     style="fill:#ffffff"
     transform="matrix(0.04822812,0,0,0.04822812,-0.34639872,-0.34639872)">
    <path
       style="fill:#ffffff;fill-opacity:1"
       id="path2"
       d="m 178.4,287.5 c -9.1,0 -16.9,4.2 -23.2,12.8 -6.3,8.5 -9.4,19 -9.4,31.4 0,12.5 3.2,23 9.4,31.5 6.3,8.5 14,12.8 23.2,12.8 8.5,0 15.9,-4.3 22.1,-12.8 6.3,-8.5 9.4,-19 9.4,-31.5 0,-12.4 -3.2,-22.9 -9.4,-31.4 -6.3,-8.6 -13.6,-12.8 -22.1,-12.8 z m 156.3,0 c -9,0 -16.9,4.2 -23.2,12.8 -6.3,8.5 -9.4,19 -9.4,31.4 0,12.5 3.2,23 9.4,31.5 6.3,8.5 14.1,12.8 23.2,12.8 8.5,0 15.9,-4.3 22.2,-12.8 6.3,-8.5 9.4,-19 9.4,-31.5 0,-12.4 -3.2,-22.9 -9.4,-31.4 -6.3,-8.6 -13.6,-12.8 -22.2,-12.8 z"
       inkscape:connector-curvature="0" />
    <path
       style="fill:#ffffff;fill-opacity:1"
       id="path4"
       d="m 445.8,172 c -0.1,0 2.7,-14.3 0.3,-39.2 C 443.9,107.9 438.6,85 430,64 c 0,0 -4.4,0.8 -12.8,2.9 -8.4,2.1 -22.1,6.3 -40.9,14.8 -18.5,8.5 -38,19.8 -58.3,33.5 -13.8,-3.9 -34.4,-5.9 -62,-5.9 -26.3,0 -46.9,2 -62,5.9 C 149.4,84.3 112.1,67.2 81.9,64 c -8.6,21 -13.9,44 -16,69 -2.4,24.9 0.4,39.3 0.4,39.3 C 42,198.6 32,236.5 32,267.8 c 0,24.2 0.7,46.1 6.1,65.5 5.6,19.3 12.7,35.1 21.1,47.2 8.6,12.1 19,22.8 31.6,31.9 12.5,9.3 24,16 34.4,20.2 10.5,4.4 22.4,7.6 36,9.9 13.3,2.4 23.4,3.6 30.5,4 0,0 28,1.5 64.4,1.5 36.4,0 64.3,-1.5 64.3,-1.5 7,-0.4 17.1,-1.6 30.5,-4 13.5,-2.3 25.5,-5.6 35.9,-9.9 10.4,-4.3 21.9,-10.9 34.5,-20.2 12.5,-9 22.9,-19.7 31.5,-31.9 8.4,-12.1 15.5,-27.9 21.1,-47.2 5.5,-19.4 6.1,-41.4 6.1,-65.6 C 480,237.4 470,199 445.8,172 Z M 380.4,405.6 C 352.5,418.7 311.5,424 257.1,424 H 255 c -54.4,0 -95.4,-5.2 -122.8,-18.4 -27.5,-13.1 -41.3,-40.1 -41.3,-80.7 0,-24.3 8.6,-44 25.5,-59.1 7.4,-6.5 16.4,-11 27.6,-13.7 11.1,-2.6 21.4,-2.8 31,-2.5 9.4,0.4 22.6,2.2 39.3,3.5 16.8,1.3 29.3,3 41.8,3 11.7,0 27.2,-2 52.1,-4 25,-2 43.5,-3 55.5,-1 12.3,2 23,6.2 32.1,14.7 17.7,15.8 26.6,35.5 26.6,59.1 -0.1,40.6 -14.2,67.6 -42,80.7 z"
       inkscape:connector-curvature="0" />
  </g>
</svg>
