<svg width="32" height="32" viewBox="0 0 32 32" fill="none" xmlns="http://www.w3.org/2000/svg">
<path d="M19.5 23.25C19.0188 23.25 18.625 23.6438 18.625 24.125C18.625 24.7437 18.1187 25.25 17.5 25.25H5.875C5.25625 25.25 4.75 24.7437 4.75 24.125V7.875C4.75 7.25625 5.25625 6.75 5.875 6.75H17.5C18.1187 6.75 18.625 7.25625 18.625 7.875C18.625 8.35625 19.0188 8.75 19.5 8.75C19.9812 8.75 20.375 8.35625 20.375 7.875C20.375 6.2875 19.0875 5 17.5 5H5.875C4.2875 5 3 6.2875 3 7.875V24.125C3 25.7125 4.2875 27 5.875 27H17.5C19.0875 27 20.375 25.7125 20.375 24.125C20.375 23.6438 19.9812 23.25 19.5 23.25Z" fill="#666666"/>
<path d="M23.4312 9.88125C23.2687 9.71875 23.05 9.625 22.8125 9.625C22.5812 9.625 22.3563 9.7125 22.1938 9.88125C21.85 10.225 21.85 10.775 22.1938 11.1187L26.2687 15.1313H10.25C9.76875 15.1313 9.375 15.525 9.375 16.0063C9.375 16.4875 9.76875 16.8813 10.25 16.8813H26.2875L22.3125 20.8875C21.975 21.225 21.975 21.7812 22.3125 22.125L22.3188 22.1313C22.4875 22.2875 22.7062 22.375 22.9312 22.375C23.1687 22.375 23.3875 22.2875 23.55 22.1187L28.7125 16.9688C28.9812 16.7 29.1187 16.3875 29.1187 16.05C29.1187 15.7187 28.975 15.4063 28.7125 15.1438L23.4312 9.88125V9.88125Z" fill="#666666"/>
</svg>
