<svg width="4000" height="2667" viewBox="0 0 4000 2667" fill="none" xmlns="http://www.w3.org/2000/svg">
<path d="M4000 2666.67H0V-0.000278175H4000V2666.67Z" fill="white"/>
<path d="M1501.73 2354.75C1475.17 2342.03 1445.73 2331.75 1414.19 2324.71C1383.77 2317.93 1353.85 2314.71 1325.35 2314.71C1305.19 2314.71 1285.73 2316.33 1267.33 2319.42C1238.64 2273.51 1188.73 2242.88 1131.66 2242.33C1131.13 2242.33 1130.62 2242.31 1130.1 2242.31C1077.62 2242.31 1030.83 2267.86 1000.96 2307.58C949.931 2261.65 861.811 2230.81 761.327 2229.83C759.708 2229.82 758.103 2229.81 756.49 2229.81C668.726 2229.81 590.299 2252.78 538.125 2289.07C503.843 2243.68 444.856 2213.39 377.543 2212.75C376.815 2212.74 376.091 2212.74 375.362 2212.74C327.973 2212.74 284.557 2227.53 250.925 2252.06C219.66 2149.62 124.149 2066.76 0 2032.34V1492.42C13.4104 1491.58 26.9781 1491.15 40.6515 1491.15C66.3698 1491.15 92.5354 1492.67 118.951 1495.81C302.245 1517.54 454.535 1611.7 534.206 1736.26C572.628 1796.33 637.997 1833.31 708.876 1833.31C711.499 1833.31 714.142 1833.26 716.78 1833.15C720.623 1833.01 724.486 1832.93 728.368 1832.93C740.174 1832.93 752.149 1833.63 764.233 1835.06C817.003 1841.31 864.483 1860.73 902.726 1888.94C938.397 1915.25 981.504 1928.59 1025.21 1928.59C1041.19 1928.59 1057.25 1926.81 1073.05 1923.22C1112.08 1914.37 1154.88 1909.61 1199.92 1909.61C1225.34 1909.61 1251.48 1911.11 1278.06 1914.27C1361.85 1924.21 1437.56 1948.93 1497.75 1982.82C1530.01 2000.98 1566.17 2010.65 1602.39 2010.65C1626.08 2010.65 1649.77 2006.5 1672.41 1997.9C1696.43 1988.77 1722.23 1983.81 1748.89 1983.81C1756.99 1983.81 1765.15 1984.27 1773.37 1985.21L1746.89 2096.45H1845.8L1872.35 2022.55C1884.47 2030.99 1895.68 2040.63 1905.84 2051.3C1909.77 2055.43 1913.88 2059.37 1918.12 2063.11C1920.01 2062.88 1921.91 2062.59 1923.79 2062.38C1962.49 2057.98 1997.19 2037.43 2022.33 2007.68C2024.99 2004.53 2027.73 2001.46 2030.56 1998.48C2028.89 2031.1 2026.9 2063.29 2024.81 2094.33H2115.39C2126.59 2041.53 2135.91 1988.85 2143.24 1936.22C2146.64 1935.56 2150.05 1934.97 2153.51 1934.46C2163.77 1932.97 2173.97 1932.23 2184.05 1932.23C2213.04 1932.23 2241.07 1938.25 2266.8 1949.25C2284.88 1956.98 2303.96 1960.7 2323 1960.7C2352.41 1960.7 2381.73 1951.82 2407.05 1935.07C2467.16 1895.31 2546.6 1865.17 2636.02 1852.11C2667.66 1847.49 2698.72 1845.29 2728.73 1845.29C2774.21 1845.29 2817.2 1850.37 2856.02 1859.83C2867.9 1862.73 2879.95 1864.17 2891.92 1864.17C2927.48 1864.15 2962.28 1851.56 2989.57 1827.51C3027.9 1793.74 3078.21 1769.69 3135.31 1761.34C3149.77 1759.23 3164.05 1758.22 3178.11 1758.22C3186.53 1758.22 3194.85 1758.58 3203.04 1759.3C3207.21 1759.66 3211.34 1759.83 3215.46 1759.83C3269.94 1759.83 3319.78 1728.71 3345.45 1679.75C3415.51 1546.14 3567.9 1440.85 3756.07 1413.38C3787.63 1408.78 3818.8 1406.55 3849.4 1406.55C3901.89 1406.55 3952.54 1413.1 4000 1425.37V1883.91C3870.6 1922.3 3773.27 2012.58 3746.18 2120.46C3714.18 2099.5 3674.33 2087.17 3631.31 2087.17C3626.82 2087.17 3622.31 2087.3 3617.77 2087.58C3550.55 2091.61 3493.18 2124.82 3461.2 2171.89C3412.46 2141.49 3342.82 2123.05 3265.15 2123.05C3255.34 2123.05 3245.37 2123.35 3235.31 2123.95C3135.02 2129.97 3048.54 2165.21 2999.9 2213.65C2969.72 2177.46 2924.98 2154.77 2875.73 2154.77C2872.54 2154.77 2869.32 2154.86 2866.08 2155.06C2809.1 2158.48 2760.81 2191.58 2734.45 2238.88C2721.72 2237.38 2708.49 2236.62 2694.94 2236.62C2660.93 2236.62 2624.71 2241.41 2588.05 2251.55C2514.99 2271.77 2454.31 2309.23 2415.85 2353.11L2224.87 2193.95H1619.96L1501.73 2354.75" fill="#F5F7FD"/>
<path d="M4000 2666.67H2987.16L2816.42 2506.47L2461.86 2391.46L2415.85 2353.11C2454.31 2309.23 2514.99 2271.77 2588.05 2251.55C2624.71 2241.41 2660.93 2236.62 2694.94 2236.62C2708.49 2236.62 2721.72 2237.38 2734.45 2238.87C2760.81 2191.58 2809.1 2158.47 2866.08 2155.06C2869.32 2154.86 2872.54 2154.77 2875.73 2154.77C2924.98 2154.77 2969.72 2177.46 2999.9 2213.65C3048.54 2165.21 3135.02 2129.97 3235.31 2123.95C3245.37 2123.35 3255.34 2123.05 3265.15 2123.05C3342.82 2123.05 3412.46 2141.49 3461.2 2171.89C3493.18 2124.82 3550.55 2091.61 3617.77 2087.58C3622.31 2087.3 3626.82 2087.17 3631.31 2087.17C3674.33 2087.17 3714.18 2099.5 3746.18 2120.46C3773.27 2012.58 3870.6 1922.3 4000 1883.91V2666.67Z" fill="#E3E9F9"/>
<path d="M980.003 2666.67H0V2032.34C124.149 2066.75 219.66 2149.62 250.924 2252.06C284.557 2227.53 327.973 2212.74 375.361 2212.74C376.091 2212.74 376.815 2212.74 377.544 2212.75C444.856 2213.39 503.843 2243.67 538.125 2289.07C590.3 2252.78 668.727 2229.81 756.489 2229.81C758.104 2229.81 759.707 2229.82 761.327 2229.83C861.812 2230.81 949.931 2261.65 1000.96 2307.58C1030.83 2267.86 1077.62 2242.31 1130.1 2242.31C1130.62 2242.31 1131.13 2242.33 1131.66 2242.33C1188.73 2242.87 1238.64 2273.51 1267.33 2319.42C1285.73 2316.33 1305.19 2314.71 1325.35 2314.71C1353.85 2314.71 1383.77 2317.93 1414.19 2324.71C1445.73 2331.75 1475.17 2342.03 1501.73 2354.75L1486.87 2374.97L1199.34 2464.42L988.477 2649.73L980.003 2666.67Z" fill="#E3E9F9"/>
<path d="M3338.67 1060.8C3338.67 1065.82 3337.71 1070.67 3335.95 1075.26H3180.92L3180.65 1074.94L3180.55 1075.26C3180.55 1075.26 3176.39 1075.26 3168.85 1075.36C3092.1 1075.79 2663.09 1078.19 2663.09 1074.4C2663.09 1030.67 2696.54 995.255 2737.77 995.255C2747.42 995.255 2756.64 997.177 2765.08 1000.7C2772.92 993.977 2782.94 990.03 2793.77 990.03C2809.44 990.03 2823.37 998.35 2831.69 1011.09C2831.79 1010.88 2831.89 1010.62 2832.02 1010.4C2840 993.389 2855.57 979.043 2875.75 969.656C2891.91 962.084 2910.93 957.711 2931.42 957.711C2937.34 957.711 2943.15 958.083 2948.81 958.776C2970.52 916.428 3012.92 887.627 3061.67 887.627C3124.02 887.627 3176.06 934.776 3187.64 997.283C3194.62 992.697 3202.89 990.03 3211.74 990.03C3229.5 990.03 3244.9 1000.64 3252.54 1016.27C3260.23 1013.5 3268.71 1011.95 3277.66 1011.95C3301.76 1011.95 3322.58 1023.15 3332.49 1039.36C3336.44 1045.81 3338.67 1053.12 3338.67 1060.8" fill="#DEE5F8"/>
<path d="M3332.48 1039.37C3316.74 1035.17 3300.12 1034.41 3283.58 1034.41C3279.3 1034.41 3275.07 1034.46 3270.82 1034.51C3224.64 1035.05 3178.51 1035.58 3132.33 1036.11C3131.78 1036.12 3131.22 1036.12 3130.67 1036.12C3105.42 1036.12 3081.4 1029.51 3057.34 1022.9C3033.29 1016.29 3009.21 1009.68 2983.8 1009.68C2979.65 1009.68 2975.44 1009.86 2971.2 1010.25C2944.11 1012.75 2916.53 1023.79 2890.51 1025.34C2888.03 1025.49 2885.52 1025.56 2882.96 1025.56C2864.05 1025.56 2843.22 1021.4 2832 1010.41C2840.01 993.392 2855.57 979.048 2875.73 969.66C2891.9 962.087 2910.93 957.714 2931.42 957.714C2937.33 957.714 2943.15 958.086 2948.8 958.779C2970.51 916.432 3012.91 887.632 3061.65 887.632C3124.01 887.632 3176.06 934.779 3187.63 997.287C3194.62 992.699 3202.88 990.033 3211.73 990.033C3229.5 990.033 3244.92 1000.65 3252.54 1016.27C3260.21 1013.5 3268.69 1011.95 3277.65 1011.95C3301.75 1011.95 3322.57 1023.15 3332.48 1039.37" fill="#EBEFFB"/>
<path d="M1330.77 1356.81C1330.77 1360.11 1330.13 1363.31 1328.96 1366.3H1227.2L1226.99 1366.09L1226.93 1366.3C1226.93 1366.3 887.199 1368.49 887.199 1365.71C887.199 1337.02 909.12 1313.77 936.213 1313.77C942.56 1313.77 948.587 1315.05 954.133 1317.34C959.307 1312.97 965.867 1310.35 972.96 1310.35C983.253 1310.35 992.373 1315.79 997.867 1324.17C1005.23 1307.95 1022.99 1295.42 1045.17 1290.99C1050.93 1289.77 1057.07 1289.13 1063.36 1289.13C1067.25 1289.13 1071.04 1289.34 1074.77 1289.82C1089.01 1262.03 1116.85 1243.1 1148.85 1243.1C1189.81 1243.1 1223.95 1274.09 1231.57 1315.1C1236.16 1312.06 1241.6 1310.35 1247.41 1310.35C1259.04 1310.35 1269.17 1317.34 1274.19 1327.58C1279.2 1325.77 1284.8 1324.7 1290.72 1324.7C1312.8 1324.7 1330.77 1339.1 1330.77 1356.81" fill="#DEE5F8"/>
<path d="M1328.96 1366.3H1269.97C1266.35 1360.65 1263.79 1354.25 1259.36 1349.18C1239.2 1326.14 1197.23 1344.59 1172.91 1326.03C1168.48 1322.67 1164.91 1318.25 1160.32 1315.15C1154.79 1311.49 1148.55 1310.14 1142.03 1310.14C1131.87 1310.14 1121.01 1313.38 1111.04 1316.11C1102.38 1318.49 1093.16 1320.3 1084.19 1320.3C1075.8 1320.3 1067.64 1318.71 1060.37 1314.51C1052.43 1309.93 1046.19 1300.43 1045.17 1290.99C1050.93 1289.77 1057.07 1289.13 1063.36 1289.13C1067.25 1289.13 1071.04 1289.34 1074.77 1289.82C1089.01 1262.03 1116.85 1243.1 1148.85 1243.1C1189.81 1243.1 1223.95 1274.09 1231.57 1315.1C1236.16 1312.06 1241.6 1310.35 1247.41 1310.35C1259.04 1310.35 1269.17 1317.34 1274.19 1327.58C1279.2 1325.77 1284.8 1324.7 1290.72 1324.7C1312.8 1324.7 1330.77 1339.1 1330.77 1356.81C1330.77 1360.11 1330.13 1363.31 1328.96 1366.3" fill="#EBEFFB"/>
<path d="M1650.35 611.302C1650.35 615.363 1148.8 612.111 1148.8 612.111L1148.75 611.837L1148.43 612.111H998.189C996.484 607.679 995.577 602.987 995.577 598.13C995.577 571.952 1022.03 550.768 1054.67 550.768C1063.36 550.768 1071.63 552.264 1079.04 554.926C1086.46 539.833 1101.39 529.543 1118.62 529.543C1127.15 529.543 1135.15 532.109 1141.92 536.527C1153.18 475.939 1203.63 430.292 1264.06 430.292C1264.48 430.292 1264.91 430.292 1265.34 430.347C1312.06 430.772 1352.59 458.555 1373.44 499.249C1378.89 498.563 1384.54 498.179 1390.3 498.179C1435.1 498.179 1473.23 519.788 1486.93 549.918C1495.04 537.597 1508.49 529.543 1523.69 529.543C1534.2 529.543 1543.9 533.385 1551.53 539.888C1559.69 536.472 1568.65 534.606 1577.98 534.606C1606.94 534.606 1631.9 552.634 1643.47 578.661C1647.9 588.526 1650.35 599.626 1650.35 611.302" fill="#DEE5F8"/>
<path d="M1541.22 588.148C1494.17 588.148 1446.57 584.059 1407.1 559.693C1390.45 549.458 1375.79 535.848 1357.86 528.124C1327.89 515.159 1289.38 518.63 1267.3 494.62C1253.01 479.103 1250.45 453.928 1261.38 435.845C1262.56 433.938 1263.84 432.058 1265.33 430.357C1312.05 430.782 1352.58 458.565 1373.44 499.271C1378.87 498.572 1384.53 498.201 1390.29 498.201C1435.08 498.201 1473.22 519.796 1486.93 549.925C1495.04 537.618 1508.47 529.564 1523.67 529.564C1534.18 529.564 1543.9 533.392 1551.52 539.909C1559.67 536.493 1568.63 534.627 1577.97 534.627C1606.92 534.627 1631.89 552.655 1643.46 578.681C1620.9 586.254 1595.52 587.215 1571.36 587.75C1561.4 587.956 1551.32 588.148 1541.22 588.148" fill="#EBEFFB"/>
<path d="M3257.3 2660.01L1245.02 2665.71L784.011 2667L988.476 2443.29L1199.34 2341.92L1486.87 2292.98L1619.96 2193.95H2224.86L2461.86 2302L2816.43 2364.92L3023.58 2471.25L3028.49 2475.24L3251.03 2654.98L3257.3 2660.01" fill="#1F3C88"/>
<path d="M2987.16 2667H2248.52L2141.79 2518.96L2121.54 2377.2L1937.77 2330.77L1866.66 2193.95H2224.87L2461.86 2391.6L2816.43 2506.69L2987.16 2667Z" fill="#324D93"/>
<path d="M1629 2359.43L1330.64 2454.96L1245.29 2665.71L784 2667L988.59 2443.31L1199.57 2341.95L1487.28 2293.02L1620.45 2194L1629 2359.43" fill="#102048"/>
<path d="M2107.61 2126.22L2108.16 2076.5L2036.13 2081.59L2034.05 2122.67C2057.01 2127.45 2083.12 2128.66 2107.61 2126.22" fill="#F9B384"/>
<path d="M2185.57 2193.66C2166.03 2161.69 2139.32 2151.01 2107.45 2146.97L2107.61 2126.22C2083.12 2128.66 2057.01 2127.45 2034.05 2122.67L2030.47 2193.66H2185.57Z" fill="#102048"/>
<path d="M1750.08 2131.06L1743.49 2146.11C1711.61 2150.17 1683.08 2167.33 1656.89 2193.66H1808.03L1824.11 2131.25C1798.31 2135.63 1773.69 2135.31 1750.08 2131.06Z" fill="#102048"/>
<path d="M1824.11 2131.25L1836.89 2081.59L1773.21 2078.19L1750.08 2131.06C1773.69 2135.31 1798.31 2135.63 1824.11 2131.25" fill="#F9B384"/>
<path d="M2140.85 1353.94C2178.77 1600.74 2168.02 1846.41 2115.38 2094.33H2024.81C2035.62 1933.41 2043.88 1742.13 2018.58 1615.46L1845.79 2096.45H1746.89L1909.9 1411.69L1965.94 1301.87L2097.26 1286.03L2140.85 1353.94" fill="#102048"/>
<path d="M2261.41 827.534L2285.75 754.508L2351.65 769.906C2356.61 794.354 2327 831.452 2305 859.226L2261.41 827.534" fill="#F9B384"/>
<path d="M2039.24 1088.15L1963.36 1089.05L1955.83 989.674L1954.95 977.78L2031.16 977.1L2033.87 1014.79L2039.24 1088.15" fill="#F9B384"/>
<path d="M2033.44 1007.95C2008.61 1025.69 1976.13 1014.65 1955.83 989.673L1954.95 977.78L2031.16 977.1L2033.44 1007.95" fill="#102048"/>
<path d="M2015.73 999.634C1977.23 1008.43 1934.24 983.74 1917.28 950.94L1914.99 892.06L1936.53 861.5L2028.21 869.394C2027.79 869.5 2027.84 870.78 2028.21 872.967C2029.28 878.674 2032.8 890.834 2036.05 905.5C2044.05 941.18 2050.45 991.687 2015.73 999.634" fill="#F9B384"/>
<path d="M1951.23 1050.55C1951.23 1050.55 2007.84 1095.83 2057.08 1031.3L2150.48 1341.49C2093.29 1381.9 2021 1395.86 1934.25 1384.51L1951.23 1050.55" fill="white"/>
<path d="M1999.97 1100.22C1986.87 1100.22 1973.85 1096.3 1963.36 1089.05C1971.2 1091.87 1979.21 1093.59 1987.21 1094.46C1990.25 1094.77 1993.29 1094.94 1996.32 1094.94C2001.28 1094.94 2006.21 1094.5 2011.05 1093.51C2018.8 1091.98 2026.48 1089.55 2033.52 1085.65C2037.23 1084.02 2040.45 1081.54 2043.97 1079.46C2047.45 1077.27 2050.48 1074.49 2054 1072.17C2051.4 1075.39 2048.69 1078.63 2045.72 1081.62C2042.51 1084.3 2039.49 1087.38 2035.76 1089.47C2028.76 1094.39 2020.48 1097.35 2012.08 1099.07C2008.08 1099.85 2004.03 1100.22 1999.97 1100.22" fill="#BBC4DB"/>
<path d="M2258.87 813.938C2207.67 900.424 2157.71 976.418 2112.56 1012.62C2105.86 1018 2097.32 1020.4 2088.76 1019.96C2071.76 1019.08 2054.24 1021.15 2034.72 1025.78C2038.81 1180.95 2053.53 1324.69 2106.32 1412.82C2138.12 1403.65 2176.69 1388.9 2198.03 1370.93C2180.65 1311.96 2160.11 1227.43 2144.82 1153.56L2314.06 851.303L2258.87 813.938" fill="#1F3C88"/>
<path d="M2036.05 905.5C1977.77 938.674 1929.33 878.234 1929.33 878.234L2028.21 872.967C2029.28 878.674 2032.8 890.834 2036.05 905.5Z" fill="#E28B6D"/>
<path d="M1930.28 939.607C1937.43 930.367 1940.69 914.833 1934.25 883.567C1955.48 907.58 1987.04 913.193 2033.31 892.62C2033.31 892.62 2063.4 880.847 2056.51 850.167C2050.28 822.433 2027.08 807.713 2008.96 830.367C1967.87 818.367 1927.45 816.207 1909.35 853.567C1909.35 853.567 1851.61 883.567 1900.85 932.247L1930.28 939.607" fill="#102048"/>
<path d="M1846.11 1580.47L1836.16 1578.26L1846.53 1531.77L1777.95 1515.09L1768.85 1557.51L1758.89 1555.38L1770.17 1502.71L1858.65 1524.23L1846.11 1580.47" fill="#1F3C88"/>
<path d="M1805.76 1433.91C1804.05 1436.27 1797.84 1484.14 1797.84 1484.14C1797.84 1484.14 1770.09 1510.15 1788.77 1526.11C1807.45 1542.06 1830.09 1541.47 1840.85 1529.65C1844.6 1518.1 1844.89 1504.58 1840.28 1488.29L1851.04 1435.09L1805.76 1433.91" fill="#F9B384"/>
<path d="M1896.87 1577.29L1869.49 1693.23L1858.96 1737.99L1681.21 1671.22L1704.64 1573.47L1715.79 1526.89L1896.87 1577.29" fill="#ACBFEE"/>
<path d="M2394.99 806.367L2300.6 863.583L2296.39 830.405L2367.53 787.266L2394.99 806.367Z" fill="#6F3428"/>
<path d="M2344.05 801.501L2319.85 816.169L2262.4 734.501L2298.22 712.787L2344.05 801.501" fill="#BB9132"/>
<path d="M2303.09 709.893L2257.63 737.46C2247.43 743.63 2234.27 741.398 2226.69 732.228L2150.6 640.23L2266.37 570.054L2312.76 680.052C2317.38 691.027 2313.26 703.723 2303.09 709.893" fill="#FBC343"/>
<path d="M2297.49 651.867L2291.22 649.266C2308.69 607.211 2305.65 573.045 2292.82 565.498C2286.12 561.59 2276.88 566.209 2267.43 578.19L2262.1 573.983C2278.83 552.778 2291.55 556.885 2296.24 559.643C2311.89 568.824 2316.62 605.833 2297.49 651.867Z" fill="#FBC343"/>
<path d="M2206.92 706.862C2157.24 702.515 2126.63 681.198 2125.73 663.105C2125.46 657.661 2127.69 644.483 2154.22 639.459L2155.48 646.135C2140.5 648.966 2132.13 655.033 2132.51 662.766C2133.24 677.623 2162.14 696.123 2207.5 700.091L2206.92 706.862" fill="#FBC343"/>
<path d="M2261 638.472C2257.03 638.472 2252.23 635.077 2249.09 629.635C2245.09 622.733 2245.3 615.162 2249.53 612.713C2250.44 612.184 2251.44 611.947 2252.51 611.947C2256.49 611.947 2261.28 615.343 2264.44 620.784C2268.42 627.687 2268.22 635.272 2263.98 637.721C2263.07 638.236 2262.07 638.472 2261 638.472" fill="#FDE7B4"/>
<path d="M2351.62 768.168C2353.26 779.934 2345.83 790.444 2330.14 790.444C2320.33 790.444 2306.59 777.003 2303.7 761.021C2301.32 747.854 2306.37 739.221 2315.68 735.381C2325.23 731.454 2348.48 745.963 2351.62 768.168Z" fill="#F9B384"/>
<path d="M2130.76 590.354L2048.12 564.314L2051.32 554.14L2133.97 580.18L2130.76 590.354Z" fill="#FBC343"/>
<path d="M2223.68 533.069L2213.18 531.215L2228.24 445.882L2238.73 447.736L2223.68 533.069Z" fill="#FBC343"/>
<path d="M2161.97 547.09L2115.25 474.114L2124.25 468.369L2170.95 541.344L2161.97 547.09Z" fill="#FBC343"/>
<path d="M1903.68 1244.14L1890.09 1449.05C1965.95 1445.65 2016.89 1420.74 2016.89 1420.74C2023.48 1298.43 2007.77 1161.59 1959.36 1038.53C1836.43 1084.21 1801.75 1235.58 1783.51 1460.53L1855.53 1468.89L1903.68 1244.14" fill="#1F3C88"/>
<path d="M1931.41 959.98C1908.29 968.233 1893.51 966.367 1892.28 944.26C1891.57 931.58 1904.64 921.473 1916.16 926.833C1921.16 929.153 1925.83 933.553 1930.28 939.607L1931.41 959.98" fill="#F9B384"/>
<path d="M1858.96 1737.99L1681.21 1671.22L1704.64 1573.47C1726.51 1618.71 1772.77 1674.82 1869.49 1693.23L1858.96 1737.99Z" fill="#95A7D5"/>
<path d="M2129.41 1083.65C2132.47 1093.38 2135.13 1103.19 2137.71 1113.02C2140.35 1122.85 2142.68 1132.74 2145 1142.63C2147.28 1152.53 2149.45 1162.46 2151.39 1172.43C2153.31 1182.42 2155.19 1192.42 2156.59 1202.51L2153.99 1203.11C2150.85 1193.41 2148.21 1183.58 2145.6 1173.75C2143.01 1163.93 2140.65 1154.05 2138.4 1144.13C2136.2 1134.22 2134 1124.3 2132.11 1114.3C2130.16 1104.33 2128.29 1094.33 2126.83 1084.25L2129.41 1083.65" fill="#102048"/>
<path d="M1907.27 1175.14C1907.61 1184.99 1907.55 1194.82 1907.4 1204.65C1907.32 1214.49 1906.91 1224.3 1906.49 1234.11C1906.04 1243.93 1905.48 1253.73 1904.67 1263.53C1903.84 1273.31 1902.99 1283.11 1901.61 1292.87L1898.96 1292.75C1898.53 1282.9 1898.63 1273.06 1898.73 1263.23C1898.87 1253.41 1899.25 1243.59 1899.75 1233.78C1900.27 1223.98 1900.8 1214.17 1901.67 1204.38C1902.45 1194.58 1903.33 1184.79 1904.63 1175.02L1907.27 1175.14Z" fill="#102048"/>
<path d="M2002.05 1658.03C2005.11 1646.83 2008.53 1635.75 2012.05 1624.7C2015.51 1613.62 2019.4 1602.71 2023.05 1591.7C2026.91 1580.77 2030.84 1569.87 2034.89 1559.01C2039.05 1548.18 2043.23 1537.37 2047.91 1526.71L2050.41 1527.59C2047.44 1538.83 2043.97 1549.9 2040.49 1560.97C2036.91 1571.98 2033.2 1582.97 2029.4 1593.93C2025.41 1604.81 2021.67 1615.78 2017.48 1626.59C2013.36 1637.43 2009.15 1648.23 2004.56 1658.91L2002.05 1658.03" fill="#708CD5"/>
<path d="M1917.56 947.714C1916.36 946.047 1915.27 944.327 1914.09 942.754C1912.89 941.207 1911.79 939.607 1910.43 938.527C1909.11 937.327 1907.89 936.78 1906.64 937.114C1905.24 937.287 1903.84 938.794 1902.28 940.047L1900.97 939.22C1901.84 937.247 1902.85 935.034 1905.49 933.847C1908.23 932.607 1911.39 933.994 1913.01 935.567C1916.4 938.927 1918.21 942.887 1919 947.154L1917.56 947.714" fill="#102048"/>
<path d="M2302.75 771.691C2305.21 762.329 2303.94 753.871 2299.89 752.797C2295.85 751.736 2289.63 756.106 2287.15 765.482C2284.68 774.845 2281.83 788.336 2288.21 791.349C2299.51 796.68 2300.26 781.053 2302.75 771.691" fill="#F9B384"/>
</svg>
